<svg xmlns="http://www.w3.org/2000/svg" viewBox="0 0 488 90" class="iconLeftSlogan"><path d="M1.54 14.59q-.13-.34-.13-.94 0-.6.41-3.56.41-2.95.41-4.74 0-.42-.06-1.15 1.06.06 1.33.5.14.26.18.49.04.23.04.73 0 .49-.45 3.73-.46 3.24-.47 4.62.07-.02.25-.02 3.03 0 4.51-.42-.1.81-.55 1.26-.46.45-1.14.45-.2 0-1.21-.09-1.02-.09-1.97-.09t-1.91.18q.19-.62.76-.95zm9.21-4.64q-.4.7-.62 1.44-.22.73-.22 1.41 0 .67.3 1.14.3.47.86.47.79 0 1.47-.86.69-.87 1.06-2.09.37-1.23.37-2.27t-.08-1.71q.33-.03.42-.03 1.19 0 1.19 1.22 0 .26-.34 2.16-.33 1.9-.33 3.04 0 1.14.43 2.02-.88-.18-1.28-.78-.4-.59-.4-1.71 0-.2.06-.76-.38 1.33-1.33 2.14-.96.82-1.87.82-.92 0-1.48-.7-.56-.69-.56-1.91 0-1.23.46-2.4.45-1.17 1.37-2.02.91-.86 2.05-.86.49 0 1.08.2-.83.21-1.52.77-.68.56-1.09 1.27zM24.84 5.7l.01.17q0 .53-.4 3.48-.4 2.94-.4 4.92 0 .88.09 1.37-.34.03-.37.03-.63 0-.94-.29-.3-.29-.3-.94 0-.65.47-3.98.46-3.32.46-4.74 0-1.42-.19-1.86.45.06.83.35.39.28.58.76 1.07-.57 2.38-.57 1.3 0 2.05.8.75.81.75 1.98 0 1.5-1.09 2.7-1.09 1.19-2.94 1.19-.42 0-.77-.05l-.04-.45q.94 0 1.64-.28t1.06-.74q.71-.9.71-2.1 0-.87-.55-1.45t-1.6-.58q-.63 0-1.44.28zm8.12 4.25q-.41.7-.63 1.44-.21.73-.21 1.41 0 .67.3 1.14.3.47.86.47.78 0 1.47-.86.68-.87 1.05-2.09.38-1.23.38-2.27t-.09-1.71q.34-.03.42-.03 1.19 0 1.19 1.22 0 .26-.33 2.16-.34 1.9-.34 3.04 0 1.14.43 2.02-.88-.18-1.28-.78-.4-.59-.4-1.71 0-.2.06-.76-.38 1.33-1.33 2.14-.95.82-1.87.82-.92 0-1.48-.7-.56-.69-.56-1.91 0-1.23.46-2.4.45-1.17 1.37-2.02.92-.86 2.05-.86.49 0 1.08.2-.83.21-1.51.77-.69.56-1.09 1.27zm13.39-.61q0 .64-.27 2.27t-.27 2.38q0 .74.18 1.07.18.33.62.56-.19.02-.52.02-.95 0-1.35-.36-.4-.36-.4-1.28 0-.52.28-2.09.28-1.58.28-2.32 0-.92-.56-.92-.9 0-1.86 1.58-.96 1.58-.96 3.81 0 .88.09 1.37-.37.03-.44.03-1.23 0-1.23-1.21 0-.28.3-2.15.29-1.88.29-2.99 0-1.12-.24-2.05.83.32 1.16.91.33.6.33 1.36 0 .76-.17 1.77.46-1.58 1.45-2.66.98-1.09 1.84-1.09 1.45 0 1.45 1.99zm6.71-1.58q0 .58-.22.81-.23.22-.66.22h-1.01q-.06.37-.29 1.74-.48 2.6-.48 3.93t.2 1.77q-.8-.3-1.14-.89-.33-.6-.33-1.45 0-.86.1-1.62.11-.76.3-1.78.2-1.03.28-1.64-.8.11-1.57.45-.02-.23-.02-.41 0-.67.44-.9.45-.23 1.29-.23.1-1.04.1-1.55t-.01-.82v-.46q.64.1.99.57.35.46.35 1.28 0 .42-.07 1.02 1.22 0 1.72-.41.03.2.03.37zm2.63 3.34q.46-1.58 1.42-2.66.96-1.09 1.8-1.09.84 0 1.19.51t.35 1.39q0 .87-.27 2.45-.27 1.59-.27 2.31t.18 1.05q.18.33.61.56-.18.02-.51.02-.9 0-1.33-.37-.42-.37-.42-1.27 0-.52.28-2.09.28-1.58.28-2.32 0-.92-.65-.92-.38 0-.84.4-.46.39-.89 1.07-.42.68-.71 1.73-.29 1.04-.29 2.05 0 1.02.09 1.51-.34.03-.38.03-.66 0-.97-.28-.32-.28-.32-.88 0-.59.25-2.29.74-5.21.74-7.91 0-1.22-.16-1.64.81.3 1.14.87.33.58.33 1.58 0 .7-.28 2.94-.27 2.24-.37 3.25zm10.59-3.02q-.84 0-1.42.96-.59.97-.78 2.27h.39q.74 0 1.29-.21.54-.21.84-.54.56-.65.56-1.46 0-.46-.22-.74-.22-.28-.66-.28zm1.97 5.67q-.64 1.05-1.41 1.47-.77.42-1.79.42-1.01 0-1.77-.9-.76-.89-.76-2.52 0-1.85 1-3.3.49-.7 1.28-1.14.79-.43 1.74-.43 2.1 0 2.1 2.03 0 1.22-.94 1.91-.95.69-2.19.69-.83 0-1.49-.15-.01.14-.01.43 0 2.48 1.47 2.48 1.38 0 2.25-1.37.52.07.52.38zm-.28-7.45q-.01.15-.15.29-.13.13-.3.17-.5-.63-1.29-1.24-.79-.62-1.61-.87.03-.73.68-1.15.74.29 1.53 1.16.79.86 1.14 1.64zm4.13 4.58q.5-1.82 1.21-2.68.71-.86 1.32-.86.61 0 .91.45.31.46.31 1.16t-.36 1.21q-.37.51-1.07.51-.22 0-.35-.03.48-.69.48-1.4 0-.5-.41-.5-.32 0-.68.37-.37.38-.7 1.05-.34.68-.56 1.75-.23 1.08-.23 2.33 0 .14.07 1.19-.36.03-.42.03-1.23 0-1.23-1.21 0-.28.3-2.15.29-1.88.29-2.99 0-1.12-.24-2.05.83.32 1.16.91.33.6.33 1.39 0 .79-.13 1.52zm8.25-2.8q-.84 0-1.43.96-.58.97-.77 2.27h.39q.74 0 1.29-.21.54-.21.84-.54.56-.65.56-1.46 0-.46-.22-.74-.22-.28-.66-.28zm1.97 5.67q-.64 1.05-1.41 1.47-.77.42-1.79.42-1.01 0-1.77-.9-.76-.89-.76-2.52 0-1.85 1-3.3.49-.7 1.28-1.14.79-.43 1.74-.43 2.1 0 2.1 2.03 0 1.22-.94 1.91-.95.69-2.19.69-.83 0-1.49-.15-.01.14-.01.43 0 2.48 1.47 2.48 1.38 0 2.25-1.37.52.07.52.38z" transform="matrix(4.3573 0 0 4.3573 127.587 -10.719)" id="409599fb-89aa-4ddd-9c19-604f11e9ffd0" fill="#000"/><defs><linearGradient gradientTransform="rotate(25)" id="1c9e5e94-8daa-4b90-953d-5ec5a7b7c461" x1="0%" y1="0%" x2="100%" y2="0%"><stop offset="0%" stop-color="#b4373d"/><stop offset="100%" stop-color="#b23acb"/></linearGradient></defs><g id="97221fff-9f5f-45e5-b2fa-fe4d6ef25df3" transform="matrix(1.21017 0 0 1.21017 -4.369 -14.703)" stroke="none" fill="url(#1c9e5e94-8daa-4b90-953d-5ec5a7b7c461)"><defs><style>.cls-1{fill:#1d1d1b}</style></defs><path class="cls-1" d="M44 46.07V46a5.74 5.74 0 00-3.52-2.72h-.14a11.6 11.6 0 00-2.5-.47 15.62 15.62 0 01-6.43-2.38.75.75 0 00-.84 1.24 17.29 17.29 0 002 1.11c0 .1-.09.2-.12.31a6.09 6.09 0 004.15 7.51 6.46 6.46 0 001.78.25 5.9 5.9 0 004.69-2.28 10.33 10.33 0 01-.18 3 .75.75 0 00.47 1 .76.76 0 00.24 0 .75.75 0 00.71-.51 11.57 11.57 0 00.23-4.1 4.94 4.94 0 00-.54-1.89zm-4.47-1.49a1.28 1.28 0 010 .52 1.3 1.3 0 11-2.53-.71 1.27 1.27 0 01.09-.17l.6.07a10.89 10.89 0 011.86.3zm.94 4.25a4.67 4.67 0 01-3.48.32 4.59 4.59 0 01-3.14-5.67v-.12a15.83 15.83 0 001.7.55v.06A2.8 2.8 0 1041 45.14a3.86 3.86 0 011.48 1.32 4.27 4.27 0 01-1.99 2.37zm27.1-5.76c0-.11-.08-.2-.12-.31a17.29 17.29 0 002-1.11.75.75 0 00-.84-1.24 15.62 15.62 0 01-6.43 2.38 11.59 11.59 0 00-2.52.47h-.12A5.74 5.74 0 0056 46v.05a4.94 4.94 0 00-.54 1.95 11.57 11.57 0 00.23 4.1.75.75 0 00.71.51.75.75 0 00.72-1 10.27 10.27 0 01-.19-3 5.9 5.9 0 004.69 2.28 6.46 6.46 0 001.78-.25 6.09 6.09 0 004.17-7.57zm-5.3 1.22l.6-.07a1.26 1.26 0 01.09.17 1.3 1.3 0 01-.89 1.6 1.27 1.27 0 01-1.63-1.41 10.89 10.89 0 011.84-.29zm.73 4.86a4.67 4.67 0 01-3.48-.32 4.27 4.27 0 01-2-2.38A3.86 3.86 0 0159 45.14a2.84 2.84 0 00.07.37 2.8 2.8 0 002.69 2A2.8 2.8 0 0064.41 44v-.06a15.83 15.83 0 001.7-.55v.12A4.59 4.59 0 0163 49.15z"/><path class="cls-1" d="M46.33 44.89c-.16-2.25-2-3.68-5.15-3.92a11.57 11.57 0 01-4.68-1.69.75.75 0 00-.83 1.25 12.92 12.92 0 005.4 1.93c1.35.1 3.63.57 3.77 2.53a.75.75 0 00.75.7h.05a.75.75 0 00.69-.8zm12.98-2.43a12.92 12.92 0 005.4-1.93.75.75 0 00-.83-1.25A11.58 11.58 0 0159.19 41c-3.11.24-5 1.67-5.15 3.92a.75.75 0 00.7.8h.05a.75.75 0 00.75-.7c.14-2.02 2.46-2.45 3.77-2.56zm-24.67-5.21a.75.75 0 101.16-.95l-3.19-3.92a.75.75 0 10-1.16.95zM38 35.08a.75.75 0 00.7.48.75.75 0 00.7-1l-1.41-3.68a.75.75 0 10-1.4.54zm4 .11a.75.75 0 00.75-.69l.25-3.18a.75.75 0 00-.69-.81.74.74 0 00-.81.69l-.25 3.19a.75.75 0 00.75.8z"/><path class="cls-1" d="M95.31 61c-3.9-1.24-13.08-1.13-20.54-.79 5-6.31 5-12.41 4.11-15.28-.68-2.15-1.73-7.57-.39-9.68a1.56 1.56 0 011.18-.77c1.76-.23 2.08-2.06 2.33-3.52a8.38 8.38 0 01.35-1.54 4.25 4.25 0 011.22-1.37 10.59 10.59 0 003.18-4.23c1.59-3.91-.54-5.84-.63-5.92a.73.73 0 00-.28-.13h-.14a6.16 6.16 0 00-4.81.73c-.68.33-1.52.73-2.76 1.25a6.88 6.88 0 01-8-1.32c-4.5-4.32-7.67-5.57-20.08-5.57s-15.54 1.26-20 5.57a6.88 6.88 0 01-8 1.32 51.69 51.69 0 01-2.76-1.25 6.16 6.16 0 00-4.81-.73h-.14a.73.73 0 00-.28.13c-.09.08-2.22 2-.63 5.92a10.59 10.59 0 003.18 4.23 4.26 4.26 0 011.22 1.37A8.4 8.4 0 0118 31c.25 1.47.56 3.29 2.33 3.52a1.56 1.56 0 011.18.77c1.34 2.11.29 7.53-.39 9.68-.91 2.87-.87 9 4.11 15.28-7.46-.34-16.64-.45-20.54.79a.75.75 0 00.46 1.43c4.09-1.3 15-1 21.18-.66h.25l.65.69c-7.68.11-12.89.64-15.5 1.58a.75.75 0 10.51 1.41c2.58-.93 8.3-1.45 16.56-1.51.35.3.71.59 1.07.88-6.47.36-17 1.21-21 3a.75.75 0 00.6 1.37c4.17-1.83 16.18-2.64 22.22-2.95l1 .72.1.07c-6.29.61-10.59 1.4-12.79 2.36a.75.75 0 00.6 1.37c2.07-.91 6.45-1.69 12.72-2.28A19.94 19.94 0 0034 74c1.63 4.32 3.86 5.38 6.46 5.6a5.67 5.67 0 001.52 1.81 15.18 15.18 0 00-3.39 4.47.75.75 0 001.4.54c.27-.7 1.08-2 3.29-4.19a10.86 10.86 0 002 .78 11.32 11.32 0 00-.92 3.43.75.75 0 00.71.79.75.75 0 00.75-.71 10.34 10.34 0 01.91-3.17 19.89 19.89 0 006.54 0 10.5 10.5 0 01.91 3.17.75.75 0 00.75.71.75.75 0 00.71-.79 11.32 11.32 0 00-.89-3.44 10.86 10.86 0 002-.78c2.21 2.19 3 3.49 3.29 4.19a.75.75 0 001.4-.54 15.18 15.18 0 00-3.39-4.47 5.67 5.67 0 001.52-1.81c2.6-.22 4.83-1.27 6.45-5.59a19.92 19.92 0 00.65-5.45c6.27.59 10.66 1.37 12.72 2.28a.75.75 0 10.6-1.37c-2.22-1-6.6-1.77-13-2.38l.8-.56.31-.22c6 .3 18.2 1.11 22.42 3a.75.75 0 00.6-1.37c-4.06-1.78-14.61-2.62-21.07-3q.57-.43 1.11-.88c8.28.05 14 .57 16.59 1.51a.75.75 0 00.51-1.41c-2.6-.94-7.81-1.47-15.5-1.58l.65-.69h.25c6.15-.31 17.09-.64 21.18.66a.75.75 0 00.47-1.54zm-42 18.91a.75.75 0 10-1.3.75c.16.27.39.7.64 1.2a18.15 18.15 0 01-5.22 0c.35-.71.63-1.19.64-1.2a.75.75 0 10-1.3-.75c0 .06-.42.73-.87 1.66a7 7 0 01-3.58-2h2.43A6 6 0 0050 76.43a6 6 0 005.29 3.13h2.43a7 7 0 01-3.58 2c-.45-.9-.83-1.56-.87-1.63zm17.1-17.26l-.08.06c-.84.7-1.77 1.38-2.68 2h-.78c.13-1.71.45-3.25 1.07-3.71a.75.75 0 00-.94-1.2c-1 .83-1.44 2.64-1.63 4.83h-.61a.73.73 0 00-.77.73.75.75 0 00.73.77h.56v.74h-.18a.76.76 0 00-.81.68.75.75 0 00.68.81h.21a20 20 0 01-.56 5.05c-1.41 3.75-3.1 4.54-5.55 4.66h-3.78a4.54 4.54 0 01-4.53-4.46 5.51 5.51 0 011.16-.84c1-.64 2.47-1.52 1.93-2.79-.19-.44-.06-.65 1.66-1.82l.63-.43a2.48 2.48 0 001.3-2 2.08 2.08 0 00-.95-1.6.74.74 0 00-1 .22.76.76 0 00.21 1c.08.06.26.23.27.37s-.17.41-.66.75l-.62.43c-1.63 1.1-2.91 2-2.2 3.57-.08.25-.89.74-1.33 1a10.22 10.22 0 00-1.13.77 10.22 10.22 0 00-1.13-.77 7.46 7.46 0 01-1.33-.93c.71-1.67-.58-2.54-2.2-3.65l-.62-.43c-.48-.34-.66-.61-.66-.75s.18-.31.26-.37a.75.75 0 00-.81-1.26 2.08 2.08 0 00-.95 1.6 2.48 2.48 0 001.3 2l.63.43c1.73 1.17 1.85 1.38 1.66 1.82-.54 1.28.89 2.15 1.93 2.79a10.47 10.47 0 011.16.77 4.54 4.54 0 01-4.54 4.52h-1.56c-3.72.09-6 .14-7.78-4.66a20.07 20.07 0 01-.56-5.05h.21a.75.75 0 10-.13-1.5h-.14v-.74h.56a.75.75 0 000-1.5h-.61c-.19-2.19-.58-4-1.63-4.83A.75.75 0 1032.06 61c.62.49.91 2 1.06 3.71h-.95c-.85-.64-1.7-1.31-2.48-2a.73.73 0 00-.15-.14c-.26-.23-.52-.46-.76-.69l2.33.15h.06a.75.75 0 00.06-1.5s-1.57-.12-4-.25c-5.44-6.19-5.58-12.2-4.72-14.92 0-.08 2.33-7.62.23-10.93a3.07 3.07 0 00-2.2-1.43c-.62-.08-.82-1-1-2.29a9.51 9.51 0 00-.44-1.84 5.37 5.37 0 00-1.63-1.95 9 9 0 01-2.78-3.67c-1-2.36-.23-3.66.1-4.08a3.19 3.19 0 012.07.54c.07.06 7.52 5.52 10.79 5.52H28c-3 2.15-4.76 4.9-4.76 7.59a.75.75 0 001.5 0c0-2.81 2.6-5.89 6.63-7.86a13.71 13.71 0 004.48-1.49.75.75 0 10-.73-1.31 15.48 15.48 0 01-7.56 1.58c-1.25 0-3.64-1.21-5.86-2.55a8.3 8.3 0 009.3-1.73c4-3.82 6.49-5.15 19-5.15s15 1.34 19 5.15a8.18 8.18 0 005.77 2.45 9.77 9.77 0 003.44-.68c-2.21 1.33-4.6 2.53-5.84 2.53a15.48 15.48 0 01-7.56-1.58.75.75 0 00-.73 1.31A13.72 13.72 0 0068.59 25c4 2 6.63 5 6.63 7.86a.75.75 0 001.5 0c0-2.7-1.77-5.45-4.76-7.59h.44c3.27 0 10.72-5.46 10.79-5.52a3.19 3.19 0 012.06-.54c.33.43 1.05 1.73.1 4.08a9 9 0 01-2.78 3.67 5.37 5.37 0 00-1.63 1.95 9.49 9.49 0 00-.44 1.84c-.23 1.33-.42 2.21-1 2.29a3.07 3.07 0 00-2.25 1.45c-2.11 3.31.2 10.86.23 10.93.87 2.73.72 8.74-4.72 14.92-2.39.13-4 .25-4 .25a.75.75 0 00.06 1.5h.06l2.33-.15c-.21.23-.52.47-.8.71z"/><path class="cls-1" d="M64.77 37.53a.75.75 0 00.58-.28l3.19-3.92a.75.75 0 10-1.16-.95l-3.19 3.92a.75.75 0 00.58 1.22zm-3.7-2.02a.74.74 0 00.27 0 .75.75 0 00.7-.48l1.41-3.68a.75.75 0 10-1.4-.54l-1.41 3.68a.75.75 0 00.43 1.02zM58 35.2a.75.75 0 00.69-.81l-.25-3.19a.75.75 0 00-1.5.12l.25 3.19a.75.75 0 00.81.69z"/><circle class="cls-1" cx="38.13" cy="69.84" r="1.05"/><circle class="cls-1" cx="38.48" cy="73.41" r="1.05"/><circle class="cls-1" cx="41.22" cy="75.76" r="1.05"/><circle class="cls-1" cx="42.14" cy="72.11" r="1.05"/><circle class="cls-1" cx="45.06" cy="73.95" r="1.05"/><circle class="cls-1" cx="61.87" cy="69.84" r="1.05"/><circle class="cls-1" cx="61.52" cy="73.41" r="1.05"/><circle class="cls-1" cx="58.78" cy="75.76" r="1.05"/><circle class="cls-1" cx="57.86" cy="72.11" r="1.05"/><circle class="cls-1" cx="54.94" cy="73.95" r="1.05"/><path class="cls-1" d="M53.56 52.5a.75.75 0 00-.81.69A9.21 9.21 0 0150 58.58a9.16 9.16 0 01-2.73-5.4.75.75 0 00-1.5.12 11 11 0 003.73 6.86.75.75 0 00.47.17.75.75 0 00.47-.17 11 11 0 003.73-6.86.75.75 0 00-.61-.8zm-13.19 2.7a.75.75 0 00-1 .27c-.2.35-.46.72-.73 1.11-1.34 1.94-3.36 4.88-.51 8a.75.75 0 001.1-1c-1.89-2.05-.93-3.82.64-6.1.29-.43.57-.83.79-1.21a.75.75 0 00-.29-1.07zm20.32.27a.75.75 0 10-1.3.75c.22.38.5.78.79 1.21 1.57 2.28 2.53 4.05.64 6.1a.75.75 0 101.1 1c2.85-3.09.83-6-.51-8-.25-.34-.51-.71-.72-1.06zM41.89 65a.75.75 0 00-1.43-.46 4.13 4.13 0 001.91 4.82.75.75 0 00.75-1.3A2.62 2.62 0 0141.89 65zm15.73 4.33a4.13 4.13 0 001.91-4.82.75.75 0 00-1.43.46A2.62 2.62 0 0156.87 68a.75.75 0 00.75 1.3zm-4.74-4.18a3.83 3.83 0 01-5.77 0 .75.75 0 00-1.16 1 5.32 5.32 0 008.08 0 .75.75 0 00-1.16-1zM30.51 50.52a.75.75 0 10-.72 1.31c2.63 1.45 3.77 3.59 3.77 4.36a.75.75 0 001.5 0c0-1.55-1.7-4.1-4.55-5.67zm40.08.3a.75.75 0 00-1-.3C66.72 52.09 65 54.64 65 56.2a.75.75 0 001.5 0c0-.77 1.14-2.92 3.77-4.36a.75.75 0 00.32-1.02z"/></g><path d="M7.74 13.02l-1.16-2.9H2.16l-1.15 2.9H.27l3.69-9.24h.83l3.69 9.24h-.74zM2.42 9.48h3.91L4.72 5.45l-.34-.98h-.01l-.34.95-1.61 4.06zm18.1-.98h3.8v4.52h-.56l-.03-1.61q-.38.84-1.18 1.3-.81.45-2 .45-1.26 0-2.2-.58-.95-.58-1.46-1.66t-.51-2.52q0-1.44.53-2.52.52-1.08 1.47-1.66.95-.58 2.21-.58 1.42 0 2.31.56.9.56 1.35 1.71l-.65.33q-.32-.96-1.08-1.46t-1.93-.5q-1.03 0-1.82.5-.78.5-1.21 1.43-.44.93-.44 2.19 0 1.92.92 3.02t2.54 1.1q1.01 0 1.71-.4t1.03-1.05q.34-.65.34-1.4v-.51h-3.14V8.5zm13.98 3.88h5.83v.64H33.8V3.78h6.31v.64H34.5v3.57h4.43v.66H34.5v3.73zm21.96-8.6v9.24h-.87l-4.9-7.25-.68-1.23h-.02l.05 1.16v7.32h-.68V3.78h.89l4.88 7.24.7 1.24-.03-1.16V3.78h.66zm17.22 6.9q-.39 1.18-1.36 1.83-.98.65-2.33.65-1.26 0-2.22-.58-.95-.58-1.47-1.66-.51-1.08-.51-2.52t.51-2.52q.52-1.08 1.47-1.66.96-.58 2.2-.58 2.77 0 3.59 2.28l-.69.32q-.32-.98-1.03-1.47t-1.83-.49q-1.03 0-1.82.5t-1.23 1.43q-.43.93-.43 2.19 0 1.26.43 2.19.42.93 1.2 1.43.78.5 1.83.5 1.12 0 1.9-.55.78-.55 1.09-1.55l.7.26zm9.76 1.7h5.84v.64h-6.54V3.78h6.31v.64h-5.61v3.57h4.44v.66h-4.44v3.73zm29.16-8.6q2.21 0 3.41 1.17 1.2 1.17 1.2 3.38 0 2.27-1.2 3.48t-3.41 1.21h-2.91V3.78h2.91zm.06 8.6q1.85 0 2.83-1.05.99-1.04.99-3 0-1.88-.99-2.89-.98-1.02-2.83-1.02h-2.27v7.96h2.27zm14.59 0h5.83v.64h-6.53V3.78h6.31v.64h-5.61v3.57h4.43v.66h-4.43v3.73zm30.82-5.84l-1.86 6.48h-.87l-2.88-9.24h.76l2.56 8.67 2.42-8.67h.81l2.42 8.68 2.59-8.68h.72l-2.89 9.24h-.86l-1.87-6.48-.51-2h-.02l-.52 2zm16.24 5.84h5.84v.64h-6.54V3.78h6.32v.64h-5.62v3.57h4.44v.66h-4.44v3.73zm14.87.64V3.78h3.26q1.52 0 2.27.63.74.63.74 1.82 0 .81-.44 1.37t-1.25.73v.01q.9.14 1.42.73.53.59.53 1.46 0 1.19-.85 1.84-.85.65-2.42.65h-3.26zm.7-4.98h2.58q2.25 0 2.25-1.81t-2.25-1.81h-2.58v3.62zm0 4.34h2.7q1.18 0 1.78-.48.6-.48.6-1.37 0-.91-.6-1.38-.6-.47-1.78-.47h-2.7v3.7zm29.44-8.6q2.22 0 3.41 1.17 1.2 1.17 1.2 3.38 0 2.27-1.2 3.48-1.19 1.21-3.41 1.21h-2.91V3.78h2.91zm.06 8.6q1.85 0 2.84-1.05.98-1.04.98-3 0-1.88-.98-2.89-.99-1.02-2.84-1.02h-2.27v7.96h2.27zm14.59 0h5.84v.64h-6.54V3.78h6.31v.64h-5.61v3.57h4.44v.66h-4.44v3.73zm17.72-8.74q2.61 0 3.49 2.04l-.6.49q-.35-.99-1.05-1.44-.69-.45-1.82-.45-.82 0-1.42.26-.6.25-.91.68-.32.44-.32.98 0 .53.27.88.26.35.9.6.64.24 1.76.44 1.8.31 2.56.9.75.58.75 1.62 0 .74-.43 1.32-.43.57-1.22.88-.8.32-1.82.32-1.45 0-2.45-.58-1.01-.58-1.37-1.63l.62-.48q.28 1 1.12 1.52.85.53 2.1.53 1.2 0 1.96-.49.77-.49.77-1.35 0-.74-.63-1.17-.62-.44-2.16-.7-1.3-.23-2.06-.55-.75-.32-1.08-.8-.33-.47-.33-1.19 0-.71.41-1.31.41-.61 1.18-.96.76-.36 1.78-.36zm13.51.14v9.24h-.7V3.78h.7zm13.47 4.72h3.79v4.52h-.56l-.02-1.61q-.38.84-1.19 1.3-.8.45-1.99.45-1.26 0-2.21-.58-.94-.58-1.45-1.66t-.51-2.52q0-1.44.52-2.52.53-1.08 1.48-1.66.95-.58 2.21-.58 1.41 0 2.31.56.9.56 1.34 1.71l-.64.33q-.32-.96-1.08-1.46-.77-.5-1.93-.5-1.04 0-1.82.5t-1.22 1.43q-.43.93-.43 2.19 0 1.92.92 3.02.91 1.1 2.54 1.1 1 0 1.7-.4t1.04-1.05q.34-.65.34-1.4v-.51h-3.14V8.5zm20.37-4.72v9.24h-.87l-4.9-7.25-.68-1.23h-.02l.04 1.16v7.32h-.67V3.78h.88l4.89 7.24.7 1.24-.03-1.16V3.78h.66z" transform="translate(130.728 56.52) scale(.9559)" id="54c8ca41-f910-4170-8f82-6d26474b6f31" fill="#000"/></svg>